<?xml version="1.0" encoding="utf-8"?>
<svg version="1.1" xmlns:xlink="http://www.w3.org/1999/xlink" width="10px" height="10px" xmlns="http://www.w3.org/2000/svg">
  <g transform="matrix(1 0 0 1 -244 -162 )">
    <path d="M 249 162  C 251.8 162  254 164.2  254 167  C 254 169.8  251.8 172  249 172  C 246.2 172  244 169.8  244 167  C 244 164.2  246.2 162  249 162  Z " fill-rule="nonzero" fill="#ffffff" stroke="none" />
    <path d="M 249 162.5  C 251.52 162.5  253.5 164.48  253.5 167  C 253.5 169.52  251.52 171.5  249 171.5  C 246.48 171.5  244.5 169.52  244.5 167  C 244.5 164.48  246.48 162.5  249 162.5  Z " stroke-width="1" stroke="#797979" fill="none" />
  </g>
</svg>